<?xml version="1.0" encoding="utf-8"?>
<!-- Generator: Adobe Illustrator 25.2.1, SVG Export Plug-In . SVG Version: 6.00 Build 0)  -->
<svg version="1.1" xmlns="http://www.w3.org/2000/svg" xmlns:xlink="http://www.w3.org/1999/xlink" x="0px" y="0px"
	 viewBox="0 0 256.7 256.7" style="enable-background:new 0 0 256.7 256.7;" xml:space="preserve">
<style type="text/css">
	.st0{display:none;}
	.st1{display:inline;fill:#6DBECC;}
	.st2{display:inline;fill:#FFFFFF;}
	.st3{display:inline;fill:#EDB39F;}
	.st4{display:inline;fill:#191C1D;}
	.st5{display:inline;fill:#F14A2D;}
	.st6{display:inline;fill:#4FBE3B;}
	.st7{fill:#D65B5B;}
	.st8{display:none;fill:#8DE256;}
	.st9{fill:#FFFFFF;stroke:#09023F;stroke-width:6;stroke-linecap:round;stroke-linejoin:round;stroke-miterlimit:10;}
	.st10{fill:#0A0A0A;stroke:#09023F;stroke-width:6;stroke-linecap:round;stroke-linejoin:round;stroke-miterlimit:10;}
	.st11{fill:#FFFFFF;}
	.st12{fill:none;stroke:#750000;stroke-width:6;stroke-miterlimit:10;}
	.st13{fill:none;stroke:#043D56;stroke-width:6;stroke-linejoin:round;stroke-miterlimit:10;}
</style>
<g id="svg2" xmlns:cc="http://creativecommons.org/ns#" xmlns:dc="http://purl.org/dc/elements/1.1/" xmlns:inkscape="http://www.inkscape.org/namespaces/inkscape" xmlns:rdf="http://www.w3.org/1999/02/22-rdf-syntax-ns#" xmlns:sodipodi="http://sodipodi.sourceforge.net/DTD/sodipodi-0.dtd" xmlns:svg="http://www.w3.org/2000/svg" class="st0">
</g>
<g id="Layer_2">
	<g>
		<g>
			<path id="path146_1_" class="st9" d="M183.5,135c2.5-0.1,4.4-3.7,4.3-8.1c-0.1-4.4-2.2-7.9-4.7-7.9l-3,0.1l-3.7,0.1l-3.7,0.1
				l-0.1-1.9l0.2,0l3.7-0.1l0.8,0c2.5-0.1,4.4-3.7,4.3-8.1c-0.1-4.4-2.2-7.9-4.7-7.9l-0.8,0l-3.7,0.1l-0.2,0l-0.1-1.9l1.3,0
				c2.5-0.1,4.4-1.8,4.3-6.2c-0.1-4.4-3.2-6.5-5.6-6.5l-2.4,0.1l-8.3,0.2c0,0-35.1-1.1-38.8,0.9c-3,1.6-18.9,8-20.7,9.4
				c0,0-5.3,0-17.7,0.3v54.5c6.3-0.3,5.8-0.5,10.7-0.7c0,0,14.3,1.4,19.8,6.3c5,4.5,14.9,22.9,14.9,22.9l2.8,10.2
				c3.5,3.2,8.5,2.9,11.7-0.7c3.2-3.5,3-6.8,1.2-14l-7.9-23.1l23.4-0.9v0c0.1,0,0.3,0,0.4,0l16.8,0c4-0.1,6.2-3.8,6.1-8.2
				c-0.1-4.4-2.5-7-6.5-6.8l-6.7,0.1l-0.1-1.9l6-0.1l3.7-0.1L183.5,135"/>
			<path id="path148_1_" class="st10" d="M69,161h24V88.7H69V161"/>
		</g>
		<path id="path150_1_" class="st11" d="M81.6,101.9c0.2,1.8,1.8,3.2,3.6,3.1c1.8-0.2,3.2-1.8,3.1-3.6c-0.2-1.8-1.8-3.2-3.6-3.1
			C82.9,98.4,81.5,100.1,81.6,101.9"/>
	</g>
	<circle class="st13" cx="128.4" cy="128.4" r="98.6"/>
</g>
</svg>
