<?xml version="1.0" encoding="utf-8"?>
<!-- Generator: Adobe Illustrator 25.2.1, SVG Export Plug-In . SVG Version: 6.00 Build 0)  -->
<svg version="1.1" xmlns="http://www.w3.org/2000/svg" xmlns:xlink="http://www.w3.org/1999/xlink" x="0px" y="0px"
	 viewBox="0 0 256.7 256.7" style="enable-background:new 0 0 256.7 256.7;" xml:space="preserve">
<style type="text/css">
	.st0{display:none;}
	.st1{display:inline;fill:#6DBECC;}
	.st2{display:inline;fill:#FFFFFF;}
	.st3{display:inline;fill:#EDB39F;}
	.st4{display:inline;fill:#191C1D;}
	.st5{display:inline;fill:#F14A2D;}
	.st6{display:inline;fill:#4FBE3B;}
	.st7{fill:#D65B5B;}
	.st8{display:none;fill:#8DE256;}
	.st9{fill:#FFFFFF;stroke:#09023F;stroke-width:6;stroke-linecap:round;stroke-linejoin:round;stroke-miterlimit:10;}
	.st10{fill:#0A0A0A;stroke:#09023F;stroke-width:6;stroke-linecap:round;stroke-linejoin:round;stroke-miterlimit:10;}
	.st11{fill:#FFFFFF;}
	.st12{fill:none;stroke:#750000;stroke-width:6;stroke-miterlimit:10;}
	.st13{fill:none;stroke:#043D56;stroke-width:6;stroke-linejoin:round;stroke-miterlimit:10;}
</style>
<g id="svg2" xmlns:cc="http://creativecommons.org/ns#" xmlns:dc="http://purl.org/dc/elements/1.1/" xmlns:inkscape="http://www.inkscape.org/namespaces/inkscape" xmlns:rdf="http://www.w3.org/1999/02/22-rdf-syntax-ns#" xmlns:sodipodi="http://sodipodi.sourceforge.net/DTD/sodipodi-0.dtd" xmlns:svg="http://www.w3.org/2000/svg" class="st0">
</g>
<g id="Layer_2">
	<rect class="st8" width="256.7" height="256.7"/>
	<g>
		<g>
			<g>
				<path id="path146_1_" class="st9" d="M186.1,125l-3-0.1l-3.7-0.1l-6-0.1l0.1-1.9l6.7,0.1c4,0.1,6.4-2.4,6.5-6.8
					c0.1-4.4-2.1-8.1-6.1-8.2l-16.8,0c-0.1,0-0.3,0-0.4,0v0l-23.4-0.9l7.9-23.1c1.8-7.2,2-10.5-1.2-14c-3.2-3.5-8.1-3.8-11.7-0.7
					l-2.8,10.2c0,0-9.9,18.4-14.9,22.9c-5.5,4.9-19.8,6.3-19.8,6.3c-5-0.2-4.5-0.4-10.7-0.7v54.5c12.5,0.3,17.7,0.3,17.7,0.3
					c1.8,1.4,17.7,7.8,20.7,9.4c3.7,2,38.8,0.9,38.8,0.9l8.3,0.2l2.4,0.1c2.5,0.1,5.5-2,5.6-6.5c0.1-4.4-1.8-6.2-4.3-6.2l-1.3,0
					l0.1-1.9l0.2,0l3.7,0.1l0.8,0c2.5,0.1,4.6-3.5,4.7-7.9c0.1-4.4-1.8-8-4.3-8.1l-0.8,0l-3.7-0.1l-0.2,0l0.1-1.9l3.7,0.1l3.7,0.1
					l3,0.1c2.5,0.1,4.6-3.5,4.7-7.9C190.5,128.7,188.6,125,186.1,125"/>
				<path id="path148_1_" class="st10" d="M71.6,99v72.3h24V99H71.6"/>
			</g>
			<path id="path150_1_" class="st11" d="M84.3,158c-0.2,1.8,1.2,3.5,3.1,3.6c1.8,0.2,3.5-1.2,3.6-3.1c0.2-1.8-1.2-3.5-3.1-3.6
				C86,154.8,84.4,156.2,84.3,158"/>
		</g>
		<circle class="st13" cx="128.4" cy="128.4" r="98.6"/>
	</g>
</g>
</svg>
